<svg id="Layer_1" data-name="Layer 1" xmlns="http://www.w3.org/2000/svg" viewBox="0 0 824.07 171.46"><defs><style>.cls-1,.cls-3{fill:none;stroke:#231f20;stroke-miterlimit:10;}.cls-1{stroke-width:8px;}.cls-2{fill:#231f20;}.cls-3{stroke-width:3px;}</style></defs><title>berrynet</title><rect class="cls-1" x="21.15" y="21.15" width="129.16" height="129.16" rx="23.18" transform="translate(85.73 -35.51) rotate(45)"/><polygon class="cls-2" points="65.27 72.33 49.79 72.33 42.06 85.73 49.79 99.13 65.27 99.13 73 85.73 65.27 72.33"/><polygon class="cls-2" points="121.67 72.33 106.2 72.33 98.46 85.73 106.2 99.13 121.67 99.13 129.41 85.73 121.67 72.33"/><path class="cls-2" d="M94.56,45.3l8.84,15.29-8.84,15.3H76.9l-8.83-15.3L76.9,45.3H94.56m2.59-4.48H74.32L62.9,60.59,74.32,80.37H97.15l11.41-19.78L97.15,40.82Z"/><path class="cls-2" d="M94.56,95.57l8.84,15.3-8.84,15.3H76.9l-8.83-15.3,8.83-15.3H94.56m2.59-4.47H74.32L62.9,110.87l11.42,19.77H97.15l11.41-19.77L97.15,91.1Z"/><line class="cls-3" x1="61.19" y1="85.73" x2="108.76" y2="85.73"/><line class="cls-3" x1="107.12" y1="60.59" x2="151.93" y2="60.59"/><line class="cls-3" x1="17.19" y1="110.87" x2="64.75" y2="110.87"/><path class="cls-2" d="M242.42,127.69a39.36,39.36,0,0,1-14.8-2.73A26.65,26.65,0,0,1,216,115.63h-1l-1.65,10.54h-16V34.22h19.82V67.49h1A23.62,23.62,0,0,1,224.89,62a33.42,33.42,0,0,1,8.7-3.23,43.88,43.88,0,0,1,9.72-1.08,38.29,38.29,0,0,1,17.46,3.81,27.67,27.67,0,0,1,11.88,11.55Q277,80.84,277,92.77q0,11.69-4.38,19.49a27.64,27.64,0,0,1-12.13,11.62A40.36,40.36,0,0,1,242.42,127.69ZM237,111.82a24.51,24.51,0,0,0,10.79-2.16,15,15,0,0,0,6.73-6.22,19.59,19.59,0,0,0,2.29-9.78V91.75A19.59,19.59,0,0,0,254.48,82a15.4,15.4,0,0,0-6.66-6.28,23.26,23.26,0,0,0-10.61-2.23,25.44,25.44,0,0,0-8.57,1.34,18.23,18.23,0,0,0-6.35,3.74,15.49,15.49,0,0,0-3.94,5.85A21.57,21.57,0,0,0,217,92.26v1a19.86,19.86,0,0,0,2.35,9.9,15.47,15.47,0,0,0,6.86,6.42A24,24,0,0,0,237,111.82Z"/><path class="cls-2" d="M332.08,127.69q-13.33,0-23-3.74a31.06,31.06,0,0,1-14.92-11.5q-5.26-7.74-5.27-19.68,0-11.68,5.14-19.5a31,31,0,0,1,14.74-11.68q9.59-3.87,22.54-3.87,13.59,0,23,3.81a29.49,29.49,0,0,1,14.22,11.3q4.83,7.5,4.83,18.54v5.84H309.73a16.89,16.89,0,0,0,3.17,9.46,15.67,15.67,0,0,0,7.81,5.27,37.39,37.39,0,0,0,11.75,1.66,32,32,0,0,0,6.41-.7,33.56,33.56,0,0,0,6.35-2,16.34,16.34,0,0,0,5-3.24,7.39,7.39,0,0,0,2.29-4.76h20.32a18.66,18.66,0,0,1-2.8,9.9,24.18,24.18,0,0,1-8.12,7.88,44.5,44.5,0,0,1-12.9,5.14A71.57,71.57,0,0,1,332.08,127.69ZM309.86,85.15h42.29a10.78,10.78,0,0,0-1.53-5.78,12.53,12.53,0,0,0-4.38-4.19,22,22,0,0,0-6.54-2.54,36.59,36.59,0,0,0-8-.83,34.72,34.72,0,0,0-11,1.59A17.37,17.37,0,0,0,313.22,78,13.3,13.3,0,0,0,309.86,85.15Z"/><path class="cls-2" d="M388.09,126.17V59.24h16l1.4,11.56h1A23.3,23.3,0,0,1,411,64.13a20.71,20.71,0,0,1,6.79-4.7,22.13,22.13,0,0,1,8.89-1.71,33.56,33.56,0,0,1,4.58.31,23.66,23.66,0,0,1,4.19,1V75.62h-9.78a19,19,0,0,0-8.19,1.59A14.51,14.51,0,0,0,412,81.53a18.91,18.91,0,0,0-3.12,6.09,24.57,24.57,0,0,0-1,7v31.5Z"/><path class="cls-2" d="M445.87,126.17V59.24h16l1.4,11.56h1a23.51,23.51,0,0,1,4.51-6.67,20.75,20.75,0,0,1,6.8-4.7,22.1,22.1,0,0,1,8.89-1.71,33.42,33.42,0,0,1,4.57.31,23.66,23.66,0,0,1,4.19,1V75.62h-9.78a19,19,0,0,0-8.19,1.59,14.67,14.67,0,0,0-5.46,4.32,18.69,18.69,0,0,0-3.11,6.09,24.24,24.24,0,0,0-1,7v31.5Z"/><path class="cls-2" d="M513.43,151.7a34.9,34.9,0,0,1-6.92-.64,36.27,36.27,0,0,1-5.78-1.65V137.09h9.53a25.35,25.35,0,0,0,8.89-1.27,12.13,12.13,0,0,0,5.27-3.75,31.44,31.44,0,0,0,3.62-5.9L495.4,59.24h21.71L531,91c.67,1.44,1.48,3.24,2.41,5.4s1.86,4.34,2.79,6.54,1.74,4.15,2.42,5.84h1c.09-.25.36-1.06.83-2.41s1.08-3,1.84-4.83,1.52-3.77,2.29-5.71l2-5.21,12.57-31.37H580L552.29,120q-3.3,7.23-6.6,13.08a45,45,0,0,1-7.56,10,28.51,28.51,0,0,1-10.22,6.41A41.7,41.7,0,0,1,513.43,151.7Z"/><path class="cls-2" d="M589.25,126.17V59.24h16l1.4,11.3h1.14a30.25,30.25,0,0,1,8.32-7.62,33.77,33.77,0,0,1,9.91-4,46.48,46.48,0,0,1,10.35-1.2q9.52,0,15.94,3a20,20,0,0,1,9.58,9.08q3.18,6.09,3.18,15.37v41H645.26V88.32a18.07,18.07,0,0,0-1.15-6.79,11.94,11.94,0,0,0-3.17-4.64,12.69,12.69,0,0,0-5-2.6,25,25,0,0,0-6.67-.83,22.38,22.38,0,0,0-9.9,2.23,19.77,19.77,0,0,0-7.43,6.09,14.87,14.87,0,0,0-2.86,9.08v35.31Z"/><path class="cls-2" d="M722.6,127.69q-13.33,0-23-3.74a31.06,31.06,0,0,1-14.92-11.5q-5.27-7.74-5.27-19.68,0-11.68,5.14-19.5a31,31,0,0,1,14.73-11.68q9.6-3.87,22.55-3.87,13.59,0,23,3.81a29.47,29.47,0,0,1,14.23,11.3q4.82,7.5,4.82,18.54v5.84H700.25a16.89,16.89,0,0,0,3.17,9.46,15.67,15.67,0,0,0,7.81,5.27A37.39,37.39,0,0,0,723,113.6a32,32,0,0,0,6.41-.7,33.56,33.56,0,0,0,6.35-2,16.46,16.46,0,0,0,5-3.24,7.39,7.39,0,0,0,2.29-4.76h20.32a18.66,18.66,0,0,1-2.8,9.9,24.12,24.12,0,0,1-8.13,7.88,44.32,44.32,0,0,1-12.89,5.14A71.57,71.57,0,0,1,722.6,127.69ZM700.37,85.15h42.29a10.77,10.77,0,0,0-1.52-5.78,12.71,12.71,0,0,0-4.38-4.19,22.13,22.13,0,0,0-6.54-2.54,36.59,36.59,0,0,0-8-.83,34.72,34.72,0,0,0-11,1.59A17.37,17.37,0,0,0,703.74,78,13.38,13.38,0,0,0,700.37,85.15Z"/><path class="cls-2" d="M808.45,127.69a35.08,35.08,0,0,1-12.76-2,13.56,13.56,0,0,1-7.43-6.73q-2.41-4.76-2.42-13V73.72h-13V59.24h13.59l3.94-19.81h15.24V59.24h18.41V73.72H805.66v29.72c0,3.21.61,5.65,1.84,7.3s3.87,2.47,7.93,2.47h8.64v12.32a29.08,29.08,0,0,1-4.63,1.15c-1.91.33-3.86.59-5.85.76S809.89,127.69,808.45,127.69Z"/></svg>